<mxfile host="app.diagrams.net" modified="2024-05-06T10:22:47.048Z" agent="Mozilla/5.0 (X11; Ubuntu; Linux x86_64; rv:125.0) Gecko/20100101 Firefox/125.0" etag="8bY-283qdtJ_UrQfOMGt" version="24.3.1" type="github">
  <diagram name="Page-1" id="eEfSvAI8vY1nVqNigm3l">
    <mxGraphModel dx="2469" dy="911" grid="1" gridSize="10" guides="1" tooltips="1" connect="1" arrows="1" fold="1" page="1" pageScale="1" pageWidth="754" pageHeight="593" math="0" shadow="0">
      <root>
        <mxCell id="0" />
        <mxCell id="1" parent="0" />
        <mxCell id="IPhadw8tjqUQaYCYA7Y1-17" value="AWS Cloud" style="points=[[0,0],[0.25,0],[0.5,0],[0.75,0],[1,0],[1,0.25],[1,0.5],[1,0.75],[1,1],[0.75,1],[0.5,1],[0.25,1],[0,1],[0,0.75],[0,0.5],[0,0.25]];outlineConnect=0;gradientColor=none;html=1;whiteSpace=wrap;fontSize=12;fontStyle=0;container=1;pointerEvents=0;collapsible=0;recursiveResize=0;shape=mxgraph.aws4.group;grIcon=mxgraph.aws4.group_aws_cloud_alt;strokeColor=#232F3E;fillColor=none;verticalAlign=top;align=left;spacingLeft=30;fontColor=#232F3E;dashed=0;" parent="1" vertex="1">
          <mxGeometry x="40" y="50" width="1160" height="710" as="geometry" />
        </mxCell>
        <mxCell id="IPhadw8tjqUQaYCYA7Y1-18" value="Region" style="points=[[0,0],[0.25,0],[0.5,0],[0.75,0],[1,0],[1,0.25],[1,0.5],[1,0.75],[1,1],[0.75,1],[0.5,1],[0.25,1],[0,1],[0,0.75],[0,0.5],[0,0.25]];outlineConnect=0;gradientColor=none;html=1;whiteSpace=wrap;fontSize=12;fontStyle=0;container=1;pointerEvents=0;collapsible=0;recursiveResize=0;shape=mxgraph.aws4.group;grIcon=mxgraph.aws4.group_region;strokeColor=#00A4A6;fillColor=none;verticalAlign=top;align=left;spacingLeft=30;fontColor=#147EBA;dashed=1;" parent="IPhadw8tjqUQaYCYA7Y1-17" vertex="1">
          <mxGeometry x="30" y="30" width="1090" height="640" as="geometry" />
        </mxCell>
        <mxCell id="IPhadw8tjqUQaYCYA7Y1-19" value="VPC" style="points=[[0,0],[0.25,0],[0.5,0],[0.75,0],[1,0],[1,0.25],[1,0.5],[1,0.75],[1,1],[0.75,1],[0.5,1],[0.25,1],[0,1],[0,0.75],[0,0.5],[0,0.25]];outlineConnect=0;gradientColor=none;html=1;whiteSpace=wrap;fontSize=12;fontStyle=0;container=1;pointerEvents=0;collapsible=0;recursiveResize=0;shape=mxgraph.aws4.group;grIcon=mxgraph.aws4.group_vpc2;strokeColor=#8C4FFF;fillColor=none;verticalAlign=top;align=left;spacingLeft=30;fontColor=#AAB7B8;dashed=0;" parent="IPhadw8tjqUQaYCYA7Y1-18" vertex="1">
          <mxGeometry x="320" y="20" width="720" height="500" as="geometry" />
        </mxCell>
        <mxCell id="IPhadw8tjqUQaYCYA7Y1-30" value="Availability Zone" style="fillColor=none;strokeColor=#147EBA;dashed=1;verticalAlign=top;fontStyle=0;fontColor=#147EBA;whiteSpace=wrap;html=1;direction=east;" parent="IPhadw8tjqUQaYCYA7Y1-19" vertex="1">
          <mxGeometry x="50" y="20" width="620" height="140" as="geometry" />
        </mxCell>
        <mxCell id="IPhadw8tjqUQaYCYA7Y1-31" value="Private subnet" style="points=[[0,0],[0.25,0],[0.5,0],[0.75,0],[1,0],[1,0.25],[1,0.5],[1,0.75],[1,1],[0.75,1],[0.5,1],[0.25,1],[0,1],[0,0.75],[0,0.5],[0,0.25]];outlineConnect=0;gradientColor=none;html=1;whiteSpace=wrap;fontSize=12;fontStyle=0;container=1;pointerEvents=0;collapsible=0;recursiveResize=0;shape=mxgraph.aws4.group;grIcon=mxgraph.aws4.group_security_group;grStroke=0;strokeColor=#00A4A6;fillColor=#E6F6F7;verticalAlign=top;align=left;spacingLeft=30;fontColor=#147EBA;dashed=0;" parent="IPhadw8tjqUQaYCYA7Y1-19" vertex="1">
          <mxGeometry x="220" y="30" width="280" height="120" as="geometry" />
        </mxCell>
        <mxCell id="IPhadw8tjqUQaYCYA7Y1-32" value="Public subnet" style="points=[[0,0],[0.25,0],[0.5,0],[0.75,0],[1,0],[1,0.25],[1,0.5],[1,0.75],[1,1],[0.75,1],[0.5,1],[0.25,1],[0,1],[0,0.75],[0,0.5],[0,0.25]];outlineConnect=0;gradientColor=none;html=1;whiteSpace=wrap;fontSize=12;fontStyle=0;container=1;pointerEvents=0;collapsible=0;recursiveResize=0;shape=mxgraph.aws4.group;grIcon=mxgraph.aws4.group_security_group;grStroke=0;strokeColor=#7AA116;fillColor=#F2F6E8;verticalAlign=top;align=left;spacingLeft=30;fontColor=#248814;dashed=0;" parent="IPhadw8tjqUQaYCYA7Y1-19" vertex="1">
          <mxGeometry x="70" y="30" width="130" height="120" as="geometry" />
        </mxCell>
        <mxCell id="IPhadw8tjqUQaYCYA7Y1-33" value="Private subnet" style="points=[[0,0],[0.25,0],[0.5,0],[0.75,0],[1,0],[1,0.25],[1,0.5],[1,0.75],[1,1],[0.75,1],[0.5,1],[0.25,1],[0,1],[0,0.75],[0,0.5],[0,0.25]];outlineConnect=0;gradientColor=none;html=1;whiteSpace=wrap;fontSize=12;fontStyle=0;container=1;pointerEvents=0;collapsible=0;recursiveResize=0;shape=mxgraph.aws4.group;grIcon=mxgraph.aws4.group_security_group;grStroke=0;strokeColor=#00A4A6;fillColor=#E6F6F7;verticalAlign=top;align=left;spacingLeft=30;fontColor=#147EBA;dashed=0;" parent="IPhadw8tjqUQaYCYA7Y1-19" vertex="1">
          <mxGeometry x="520" y="30" width="130" height="120" as="geometry" />
        </mxCell>
        <mxCell id="IPhadw8tjqUQaYCYA7Y1-44" value="Availability Zone" style="fillColor=none;strokeColor=#147EBA;dashed=1;verticalAlign=top;fontStyle=0;fontColor=#147EBA;whiteSpace=wrap;html=1;direction=east;" parent="IPhadw8tjqUQaYCYA7Y1-19" vertex="1">
          <mxGeometry x="50" y="180" width="620" height="140" as="geometry" />
        </mxCell>
        <mxCell id="IPhadw8tjqUQaYCYA7Y1-45" value="Availability Zone" style="fillColor=none;strokeColor=#147EBA;dashed=1;verticalAlign=top;fontStyle=0;fontColor=#147EBA;whiteSpace=wrap;html=1;direction=east;" parent="IPhadw8tjqUQaYCYA7Y1-19" vertex="1">
          <mxGeometry x="50" y="340" width="620" height="140" as="geometry" />
        </mxCell>
        <mxCell id="IPhadw8tjqUQaYCYA7Y1-46" value="Public subnet" style="points=[[0,0],[0.25,0],[0.5,0],[0.75,0],[1,0],[1,0.25],[1,0.5],[1,0.75],[1,1],[0.75,1],[0.5,1],[0.25,1],[0,1],[0,0.75],[0,0.5],[0,0.25]];outlineConnect=0;gradientColor=none;html=1;whiteSpace=wrap;fontSize=12;fontStyle=0;container=1;pointerEvents=0;collapsible=0;recursiveResize=0;shape=mxgraph.aws4.group;grIcon=mxgraph.aws4.group_security_group;grStroke=0;strokeColor=#7AA116;fillColor=#F2F6E8;verticalAlign=top;align=left;spacingLeft=30;fontColor=#248814;dashed=0;" parent="IPhadw8tjqUQaYCYA7Y1-19" vertex="1">
          <mxGeometry x="70" y="190" width="130" height="120" as="geometry" />
        </mxCell>
        <mxCell id="IPhadw8tjqUQaYCYA7Y1-54" value="" style="sketch=0;outlineConnect=0;fontColor=#232F3E;gradientColor=none;fillColor=#8C4FFF;strokeColor=none;dashed=0;verticalLabelPosition=bottom;verticalAlign=top;align=center;html=1;fontSize=12;fontStyle=0;aspect=fixed;pointerEvents=1;shape=mxgraph.aws4.application_load_balancer;" parent="IPhadw8tjqUQaYCYA7Y1-46" vertex="1">
          <mxGeometry x="40" y="45" width="50" height="50" as="geometry" />
        </mxCell>
        <mxCell id="IPhadw8tjqUQaYCYA7Y1-55" value="ALB" style="text;html=1;align=center;verticalAlign=middle;whiteSpace=wrap;rounded=0;" parent="IPhadw8tjqUQaYCYA7Y1-46" vertex="1">
          <mxGeometry x="35" y="90" width="60" height="30" as="geometry" />
        </mxCell>
        <mxCell id="IPhadw8tjqUQaYCYA7Y1-47" value="Public subnet" style="points=[[0,0],[0.25,0],[0.5,0],[0.75,0],[1,0],[1,0.25],[1,0.5],[1,0.75],[1,1],[0.75,1],[0.5,1],[0.25,1],[0,1],[0,0.75],[0,0.5],[0,0.25]];outlineConnect=0;gradientColor=none;html=1;whiteSpace=wrap;fontSize=12;fontStyle=0;container=1;pointerEvents=0;collapsible=0;recursiveResize=0;shape=mxgraph.aws4.group;grIcon=mxgraph.aws4.group_security_group;grStroke=0;strokeColor=#7AA116;fillColor=#F2F6E8;verticalAlign=top;align=left;spacingLeft=30;fontColor=#248814;dashed=0;" parent="IPhadw8tjqUQaYCYA7Y1-19" vertex="1">
          <mxGeometry x="70" y="350" width="130" height="120" as="geometry" />
        </mxCell>
        <mxCell id="IPhadw8tjqUQaYCYA7Y1-48" value="Private subnet" style="points=[[0,0],[0.25,0],[0.5,0],[0.75,0],[1,0],[1,0.25],[1,0.5],[1,0.75],[1,1],[0.75,1],[0.5,1],[0.25,1],[0,1],[0,0.75],[0,0.5],[0,0.25]];outlineConnect=0;gradientColor=none;html=1;whiteSpace=wrap;fontSize=12;fontStyle=0;container=1;pointerEvents=0;collapsible=0;recursiveResize=0;shape=mxgraph.aws4.group;grIcon=mxgraph.aws4.group_security_group;grStroke=0;strokeColor=#00A4A6;fillColor=#E6F6F7;verticalAlign=top;align=left;spacingLeft=30;fontColor=#147EBA;dashed=0;" parent="IPhadw8tjqUQaYCYA7Y1-19" vertex="1">
          <mxGeometry x="220" y="190" width="280" height="120" as="geometry" />
        </mxCell>
        <mxCell id="IPhadw8tjqUQaYCYA7Y1-49" value="Private subnet" style="points=[[0,0],[0.25,0],[0.5,0],[0.75,0],[1,0],[1,0.25],[1,0.5],[1,0.75],[1,1],[0.75,1],[0.5,1],[0.25,1],[0,1],[0,0.75],[0,0.5],[0,0.25]];outlineConnect=0;gradientColor=none;html=1;whiteSpace=wrap;fontSize=12;fontStyle=0;container=1;pointerEvents=0;collapsible=0;recursiveResize=0;shape=mxgraph.aws4.group;grIcon=mxgraph.aws4.group_security_group;grStroke=0;strokeColor=#00A4A6;fillColor=#E6F6F7;verticalAlign=top;align=left;spacingLeft=30;fontColor=#147EBA;dashed=0;" parent="IPhadw8tjqUQaYCYA7Y1-19" vertex="1">
          <mxGeometry x="220" y="350" width="280" height="120" as="geometry" />
        </mxCell>
        <mxCell id="IPhadw8tjqUQaYCYA7Y1-50" value="Private subnet" style="points=[[0,0],[0.25,0],[0.5,0],[0.75,0],[1,0],[1,0.25],[1,0.5],[1,0.75],[1,1],[0.75,1],[0.5,1],[0.25,1],[0,1],[0,0.75],[0,0.5],[0,0.25]];outlineConnect=0;gradientColor=none;html=1;whiteSpace=wrap;fontSize=12;fontStyle=0;container=1;pointerEvents=0;collapsible=0;recursiveResize=0;shape=mxgraph.aws4.group;grIcon=mxgraph.aws4.group_security_group;grStroke=0;strokeColor=#00A4A6;fillColor=#E6F6F7;verticalAlign=top;align=left;spacingLeft=30;fontColor=#147EBA;dashed=0;" parent="IPhadw8tjqUQaYCYA7Y1-19" vertex="1">
          <mxGeometry x="520" y="190" width="130" height="125" as="geometry" />
        </mxCell>
        <mxCell id="IPhadw8tjqUQaYCYA7Y1-51" value="Private subnet" style="points=[[0,0],[0.25,0],[0.5,0],[0.75,0],[1,0],[1,0.25],[1,0.5],[1,0.75],[1,1],[0.75,1],[0.5,1],[0.25,1],[0,1],[0,0.75],[0,0.5],[0,0.25]];outlineConnect=0;gradientColor=none;html=1;whiteSpace=wrap;fontSize=12;fontStyle=0;container=1;pointerEvents=0;collapsible=0;recursiveResize=0;shape=mxgraph.aws4.group;grIcon=mxgraph.aws4.group_security_group;grStroke=0;strokeColor=#00A4A6;fillColor=#E6F6F7;verticalAlign=top;align=left;spacingLeft=30;fontColor=#147EBA;dashed=0;" parent="IPhadw8tjqUQaYCYA7Y1-19" vertex="1">
          <mxGeometry x="520" y="350" width="130" height="120" as="geometry" />
        </mxCell>
        <mxCell id="IPhadw8tjqUQaYCYA7Y1-52" value="" style="sketch=0;outlineConnect=0;fontColor=#232F3E;gradientColor=none;fillColor=#8C4FFF;strokeColor=none;dashed=0;verticalLabelPosition=bottom;verticalAlign=top;align=center;html=1;fontSize=12;fontStyle=0;aspect=fixed;pointerEvents=1;shape=mxgraph.aws4.nat_gateway;" parent="IPhadw8tjqUQaYCYA7Y1-19" vertex="1">
          <mxGeometry x="110" y="65" width="50" height="50" as="geometry" />
        </mxCell>
        <mxCell id="IPhadw8tjqUQaYCYA7Y1-53" value="" style="sketch=0;outlineConnect=0;fontColor=#232F3E;gradientColor=none;fillColor=#8C4FFF;strokeColor=none;dashed=0;verticalLabelPosition=bottom;verticalAlign=top;align=center;html=1;fontSize=12;fontStyle=0;aspect=fixed;pointerEvents=1;shape=mxgraph.aws4.nat_gateway;" parent="IPhadw8tjqUQaYCYA7Y1-19" vertex="1">
          <mxGeometry x="110" y="385" width="50" height="50" as="geometry" />
        </mxCell>
        <mxCell id="IPhadw8tjqUQaYCYA7Y1-56" value="NAT Gateway" style="text;html=1;align=center;verticalAlign=middle;whiteSpace=wrap;rounded=0;" parent="IPhadw8tjqUQaYCYA7Y1-19" vertex="1">
          <mxGeometry x="85" y="435" width="105" height="30" as="geometry" />
        </mxCell>
        <mxCell id="IPhadw8tjqUQaYCYA7Y1-57" value="NAT Gateway" style="text;html=1;align=center;verticalAlign=middle;whiteSpace=wrap;rounded=0;" parent="IPhadw8tjqUQaYCYA7Y1-19" vertex="1">
          <mxGeometry x="85" y="115" width="105" height="30" as="geometry" />
        </mxCell>
        <mxCell id="1MIM3KkcUKfmm6xURoJ1-69" value="" style="sketch=0;points=[[0,0,0],[0.25,0,0],[0.5,0,0],[0.75,0,0],[1,0,0],[0,1,0],[0.25,1,0],[0.5,1,0],[0.75,1,0],[1,1,0],[0,0.25,0],[0,0.5,0],[0,0.75,0],[1,0.25,0],[1,0.5,0],[1,0.75,0]];outlineConnect=0;fontColor=#232F3E;fillColor=#C925D1;strokeColor=#ffffff;dashed=0;verticalLabelPosition=bottom;verticalAlign=top;align=center;html=1;fontSize=12;fontStyle=0;aspect=fixed;shape=mxgraph.aws4.resourceIcon;resIcon=mxgraph.aws4.rds;" vertex="1" parent="IPhadw8tjqUQaYCYA7Y1-19">
          <mxGeometry x="560" y="230" width="50" height="50" as="geometry" />
        </mxCell>
        <mxCell id="1MIM3KkcUKfmm6xURoJ1-70" value="PostgreSQL" style="text;html=1;align=center;verticalAlign=middle;whiteSpace=wrap;rounded=0;" vertex="1" parent="IPhadw8tjqUQaYCYA7Y1-19">
          <mxGeometry x="555" y="275" width="60" height="30" as="geometry" />
        </mxCell>
        <mxCell id="IPhadw8tjqUQaYCYA7Y1-113" value="" style="sketch=0;points=[[0,0,0],[0.25,0,0],[0.5,0,0],[0.75,0,0],[1,0,0],[0,1,0],[0.25,1,0],[0.5,1,0],[0.75,1,0],[1,1,0],[0,0.25,0],[0,0.5,0],[0,0.75,0],[1,0.25,0],[1,0.5,0],[1,0.75,0]];outlineConnect=0;fontColor=#232F3E;fillColor=#ED7100;strokeColor=#ffffff;dashed=0;verticalLabelPosition=bottom;verticalAlign=top;align=center;html=1;fontSize=12;fontStyle=0;aspect=fixed;shape=mxgraph.aws4.resourceIcon;resIcon=mxgraph.aws4.ecr;" parent="IPhadw8tjqUQaYCYA7Y1-18" vertex="1">
          <mxGeometry x="590" y="550" width="55" height="55" as="geometry" />
        </mxCell>
        <mxCell id="IPhadw8tjqUQaYCYA7Y1-22" value="" style="sketch=0;points=[[0,0,0],[0.25,0,0],[0.5,0,0],[0.75,0,0],[1,0,0],[0,1,0],[0.25,1,0],[0.5,1,0],[0.75,1,0],[1,1,0],[0,0.25,0],[0,0.5,0],[0,0.75,0],[1,0.25,0],[1,0.5,0],[1,0.75,0]];outlineConnect=0;fontColor=#232F3E;fillColor=#8C4FFF;strokeColor=#ffffff;dashed=0;verticalLabelPosition=bottom;verticalAlign=top;align=center;html=1;fontSize=12;fontStyle=0;aspect=fixed;shape=mxgraph.aws4.resourceIcon;resIcon=mxgraph.aws4.cloudfront;" parent="IPhadw8tjqUQaYCYA7Y1-18" vertex="1">
          <mxGeometry x="185" y="255" width="55" height="55" as="geometry" />
        </mxCell>
        <mxCell id="IPhadw8tjqUQaYCYA7Y1-24" value="" style="sketch=0;points=[[0,0,0],[0.25,0,0],[0.5,0,0],[0.75,0,0],[1,0,0],[0,1,0],[0.25,1,0],[0.5,1,0],[0.75,1,0],[1,1,0],[0,0.25,0],[0,0.5,0],[0,0.75,0],[1,0.25,0],[1,0.5,0],[1,0.75,0]];outlineConnect=0;fontColor=#232F3E;fillColor=#DD344C;strokeColor=#ffffff;dashed=0;verticalLabelPosition=bottom;verticalAlign=top;align=center;html=1;fontSize=12;fontStyle=0;aspect=fixed;shape=mxgraph.aws4.resourceIcon;resIcon=mxgraph.aws4.certificate_manager_3;" parent="IPhadw8tjqUQaYCYA7Y1-18" vertex="1">
          <mxGeometry x="192.5" y="365" width="55" height="55" as="geometry" />
        </mxCell>
        <mxCell id="IPhadw8tjqUQaYCYA7Y1-27" value="Cloudfront" style="text;html=1;align=center;verticalAlign=middle;whiteSpace=wrap;rounded=0;" parent="IPhadw8tjqUQaYCYA7Y1-18" vertex="1">
          <mxGeometry x="185" y="305" width="60" height="30" as="geometry" />
        </mxCell>
        <mxCell id="IPhadw8tjqUQaYCYA7Y1-107" style="edgeStyle=orthogonalEdgeStyle;rounded=0;orthogonalLoop=1;jettySize=auto;html=1;" parent="IPhadw8tjqUQaYCYA7Y1-18" source="IPhadw8tjqUQaYCYA7Y1-20" target="IPhadw8tjqUQaYCYA7Y1-22" edge="1">
          <mxGeometry relative="1" as="geometry" />
        </mxCell>
        <mxCell id="IPhadw8tjqUQaYCYA7Y1-20" value="" style="sketch=0;points=[[0,0,0],[0.25,0,0],[0.5,0,0],[0.75,0,0],[1,0,0],[0,1,0],[0.25,1,0],[0.5,1,0],[0.75,1,0],[1,1,0],[0,0.25,0],[0,0.5,0],[0,0.75,0],[1,0.25,0],[1,0.5,0],[1,0.75,0]];outlineConnect=0;fontColor=#232F3E;fillColor=#8C4FFF;strokeColor=#ffffff;dashed=0;verticalLabelPosition=bottom;verticalAlign=top;align=center;html=1;fontSize=12;fontStyle=0;aspect=fixed;shape=mxgraph.aws4.resourceIcon;resIcon=mxgraph.aws4.route_53;" parent="IPhadw8tjqUQaYCYA7Y1-18" vertex="1">
          <mxGeometry x="60" y="255" width="55" height="55" as="geometry" />
        </mxCell>
        <mxCell id="IPhadw8tjqUQaYCYA7Y1-109" style="edgeStyle=orthogonalEdgeStyle;rounded=0;orthogonalLoop=1;jettySize=auto;html=1;entryX=0.583;entryY=0.5;entryDx=0;entryDy=0;entryPerimeter=0;" parent="IPhadw8tjqUQaYCYA7Y1-18" source="IPhadw8tjqUQaYCYA7Y1-24" target="IPhadw8tjqUQaYCYA7Y1-27" edge="1">
          <mxGeometry relative="1" as="geometry" />
        </mxCell>
        <mxCell id="IPhadw8tjqUQaYCYA7Y1-25" value="Route53&lt;div&gt;&lt;br&gt;&lt;/div&gt;" style="text;html=1;align=center;verticalAlign=middle;whiteSpace=wrap;rounded=0;" parent="IPhadw8tjqUQaYCYA7Y1-18" vertex="1">
          <mxGeometry x="60" y="310" width="60" height="30" as="geometry" />
        </mxCell>
        <mxCell id="IPhadw8tjqUQaYCYA7Y1-29" value="SSL" style="text;html=1;align=center;verticalAlign=middle;whiteSpace=wrap;rounded=0;" parent="IPhadw8tjqUQaYCYA7Y1-18" vertex="1">
          <mxGeometry x="190" y="420" width="60" height="30" as="geometry" />
        </mxCell>
        <mxCell id="1MIM3KkcUKfmm6xURoJ1-76" style="edgeStyle=orthogonalEdgeStyle;rounded=0;orthogonalLoop=1;jettySize=auto;html=1;dashed=1;" edge="1" parent="IPhadw8tjqUQaYCYA7Y1-18" source="1MIM3KkcUKfmm6xURoJ1-74" target="IPhadw8tjqUQaYCYA7Y1-54">
          <mxGeometry relative="1" as="geometry" />
        </mxCell>
        <mxCell id="1MIM3KkcUKfmm6xURoJ1-74" value="" style="sketch=0;points=[[0,0,0],[0.25,0,0],[0.5,0,0],[0.75,0,0],[1,0,0],[0,1,0],[0.25,1,0],[0.5,1,0],[0.75,1,0],[1,1,0],[0,0.25,0],[0,0.5,0],[0,0.75,0],[1,0.25,0],[1,0.5,0],[1,0.75,0]];outlineConnect=0;fontColor=#232F3E;fillColor=#DD344C;strokeColor=#ffffff;dashed=0;verticalLabelPosition=bottom;verticalAlign=top;align=center;html=1;fontSize=12;fontStyle=0;aspect=fixed;shape=mxgraph.aws4.resourceIcon;resIcon=mxgraph.aws4.waf;" vertex="1" parent="IPhadw8tjqUQaYCYA7Y1-18">
          <mxGeometry x="190" y="160" width="55" height="55" as="geometry" />
        </mxCell>
        <mxCell id="1MIM3KkcUKfmm6xURoJ1-75" value="WAF" style="text;html=1;align=center;verticalAlign=middle;whiteSpace=wrap;rounded=0;" vertex="1" parent="IPhadw8tjqUQaYCYA7Y1-18">
          <mxGeometry x="190" y="211" width="60" height="30" as="geometry" />
        </mxCell>
        <mxCell id="1MIM3KkcUKfmm6xURoJ1-84" style="edgeStyle=orthogonalEdgeStyle;rounded=0;orthogonalLoop=1;jettySize=auto;html=1;entryX=0;entryY=0.56;entryDx=0;entryDy=0;entryPerimeter=0;" edge="1" parent="IPhadw8tjqUQaYCYA7Y1-18" source="IPhadw8tjqUQaYCYA7Y1-22" target="IPhadw8tjqUQaYCYA7Y1-54">
          <mxGeometry relative="1" as="geometry" />
        </mxCell>
        <mxCell id="1MIM3KkcUKfmm6xURoJ1-94" value="" style="sketch=0;points=[[0,0,0],[0.25,0,0],[0.5,0,0],[0.75,0,0],[1,0,0],[0,1,0],[0.25,1,0],[0.5,1,0],[0.75,1,0],[1,1,0],[0,0.25,0],[0,0.5,0],[0,0.75,0],[1,0.25,0],[1,0.5,0],[1,0.75,0]];outlineConnect=0;fontColor=#232F3E;fillColor=#ED7100;strokeColor=#ffffff;dashed=0;verticalLabelPosition=bottom;verticalAlign=top;align=center;html=1;fontSize=12;fontStyle=0;aspect=fixed;shape=mxgraph.aws4.resourceIcon;resIcon=mxgraph.aws4.eks;" vertex="1" parent="IPhadw8tjqUQaYCYA7Y1-18">
          <mxGeometry x="670" y="550" width="55" height="55" as="geometry" />
        </mxCell>
        <mxCell id="IPhadw8tjqUQaYCYA7Y1-116" value="ECR" style="text;html=1;align=center;verticalAlign=middle;whiteSpace=wrap;rounded=0;" parent="IPhadw8tjqUQaYCYA7Y1-18" vertex="1">
          <mxGeometry x="585" y="605" width="60" height="30" as="geometry" />
        </mxCell>
        <mxCell id="1MIM3KkcUKfmm6xURoJ1-96" value="EKS" style="text;html=1;align=center;verticalAlign=middle;whiteSpace=wrap;rounded=0;" vertex="1" parent="IPhadw8tjqUQaYCYA7Y1-18">
          <mxGeometry x="670" y="600" width="60" height="30" as="geometry" />
        </mxCell>
        <mxCell id="1MIM3KkcUKfmm6xURoJ1-98" value="" style="rounded=1;arcSize=10;dashed=1;fillColor=none;gradientColor=none;dashPattern=1 1;strokeWidth=2;" vertex="1" parent="IPhadw8tjqUQaYCYA7Y1-18">
          <mxGeometry x="560" y="535" width="260" height="105" as="geometry" />
        </mxCell>
        <mxCell id="1MIM3KkcUKfmm6xURoJ1-101" value="" style="verticalLabelPosition=bottom;html=1;verticalAlign=top;align=center;strokeColor=none;fillColor=#00BEF2;shape=mxgraph.azure.github_code;pointerEvents=1;" vertex="1" parent="IPhadw8tjqUQaYCYA7Y1-18">
          <mxGeometry x="750" y="555" width="50" height="50" as="geometry" />
        </mxCell>
        <mxCell id="1MIM3KkcUKfmm6xURoJ1-104" style="edgeStyle=orthogonalEdgeStyle;rounded=0;orthogonalLoop=1;jettySize=auto;html=1;entryX=0.516;entryY=1;entryDx=0;entryDy=0;entryPerimeter=0;dashed=1;" edge="1" parent="IPhadw8tjqUQaYCYA7Y1-18" source="1MIM3KkcUKfmm6xURoJ1-98" target="IPhadw8tjqUQaYCYA7Y1-45">
          <mxGeometry relative="1" as="geometry" />
        </mxCell>
        <mxCell id="1MIM3KkcUKfmm6xURoJ1-105" value="GitActions" style="text;html=1;align=center;verticalAlign=middle;whiteSpace=wrap;rounded=0;" vertex="1" parent="IPhadw8tjqUQaYCYA7Y1-18">
          <mxGeometry x="745" y="600" width="60" height="30" as="geometry" />
        </mxCell>
        <mxCell id="1MIM3KkcUKfmm6xURoJ1-106" style="edgeStyle=orthogonalEdgeStyle;rounded=0;orthogonalLoop=1;jettySize=auto;html=1;exitX=0.5;exitY=1;exitDx=0;exitDy=0;" edge="1" parent="IPhadw8tjqUQaYCYA7Y1-18" source="1MIM3KkcUKfmm6xURoJ1-105" target="1MIM3KkcUKfmm6xURoJ1-105">
          <mxGeometry relative="1" as="geometry" />
        </mxCell>
        <mxCell id="IPhadw8tjqUQaYCYA7Y1-77" value="" style="outlineConnect=0;gradientColor=none;html=1;whiteSpace=wrap;fontSize=12;fontStyle=0;strokeColor=#FF9900;fillColor=none;verticalAlign=top;align=center;fontColor=#FF9900;dashed=0;spacingTop=3;" parent="1" vertex="1">
          <mxGeometry x="630" y="150" width="240" height="410" as="geometry" />
        </mxCell>
        <mxCell id="IPhadw8tjqUQaYCYA7Y1-78" value="" style="sketch=0;points=[[0,0,0],[0.25,0,0],[0.5,0,0],[0.75,0,0],[1,0,0],[0,1,0],[0.25,1,0],[0.5,1,0],[0.75,1,0],[1,1,0],[0,0.25,0],[0,0.5,0],[0,0.75,0],[1,0.25,0],[1,0.5,0],[1,0.75,0]];outlineConnect=0;fontColor=#232F3E;fillColor=#ED7100;strokeColor=#ffffff;dashed=0;verticalLabelPosition=bottom;verticalAlign=top;align=center;html=1;fontSize=12;fontStyle=0;aspect=fixed;shape=mxgraph.aws4.resourceIcon;resIcon=mxgraph.aws4.eks;" parent="1" vertex="1">
          <mxGeometry x="630" y="150" width="30" height="30" as="geometry" />
        </mxCell>
        <mxCell id="IPhadw8tjqUQaYCYA7Y1-79" value="" style="outlineConnect=0;gradientColor=none;html=1;whiteSpace=wrap;fontSize=12;fontStyle=0;strokeColor=#879196;fillColor=none;verticalAlign=top;align=center;fontColor=#879196;dashed=1;spacingTop=3;" parent="1" vertex="1">
          <mxGeometry x="645" y="480" width="220" height="70" as="geometry" />
        </mxCell>
        <mxCell id="IPhadw8tjqUQaYCYA7Y1-80" value="" style="aspect=fixed;sketch=0;html=1;dashed=0;whitespace=wrap;fillColor=#2875E2;strokeColor=#ffffff;points=[[0.005,0.63,0],[0.1,0.2,0],[0.9,0.2,0],[0.5,0,0],[0.995,0.63,0],[0.72,0.99,0],[0.5,1,0],[0.28,0.99,0]];shape=mxgraph.kubernetes.icon2;kubernetesLabel=1;prIcon=pod" parent="1" vertex="1">
          <mxGeometry x="655" y="491" width="50" height="48" as="geometry" />
        </mxCell>
        <mxCell id="IPhadw8tjqUQaYCYA7Y1-81" value="" style="aspect=fixed;sketch=0;html=1;dashed=0;whitespace=wrap;fillColor=#2875E2;strokeColor=#ffffff;points=[[0.005,0.63,0],[0.1,0.2,0],[0.9,0.2,0],[0.5,0,0],[0.995,0.63,0],[0.72,0.99,0],[0.5,1,0],[0.28,0.99,0]];shape=mxgraph.kubernetes.icon2;kubernetesLabel=1;prIcon=pod" parent="1" vertex="1">
          <mxGeometry x="725" y="491" width="50" height="48" as="geometry" />
        </mxCell>
        <mxCell id="IPhadw8tjqUQaYCYA7Y1-82" value="" style="aspect=fixed;sketch=0;html=1;dashed=0;whitespace=wrap;fillColor=#2875E2;strokeColor=#ffffff;points=[[0.005,0.63,0],[0.1,0.2,0],[0.9,0.2,0],[0.5,0,0],[0.995,0.63,0],[0.72,0.99,0],[0.5,1,0],[0.28,0.99,0]];shape=mxgraph.kubernetes.icon2;kubernetesLabel=1;prIcon=pod" parent="1" vertex="1">
          <mxGeometry x="795" y="491" width="50" height="48" as="geometry" />
        </mxCell>
        <mxCell id="IPhadw8tjqUQaYCYA7Y1-83" value="Node Group" style="text;html=1;align=center;verticalAlign=middle;whiteSpace=wrap;rounded=0;" parent="1" vertex="1">
          <mxGeometry x="655" y="461" width="190" height="30" as="geometry" />
        </mxCell>
        <mxCell id="IPhadw8tjqUQaYCYA7Y1-86" value="" style="outlineConnect=0;gradientColor=none;html=1;whiteSpace=wrap;fontSize=12;fontStyle=0;strokeColor=#879196;fillColor=none;verticalAlign=top;align=center;fontColor=#879196;dashed=1;spacingTop=3;" parent="1" vertex="1">
          <mxGeometry x="640" y="335" width="220" height="70" as="geometry" />
        </mxCell>
        <mxCell id="IPhadw8tjqUQaYCYA7Y1-87" value="" style="aspect=fixed;sketch=0;html=1;dashed=0;whitespace=wrap;fillColor=#2875E2;strokeColor=#ffffff;points=[[0.005,0.63,0],[0.1,0.2,0],[0.9,0.2,0],[0.5,0,0],[0.995,0.63,0],[0.72,0.99,0],[0.5,1,0],[0.28,0.99,0]];shape=mxgraph.kubernetes.icon2;kubernetesLabel=1;prIcon=pod" parent="1" vertex="1">
          <mxGeometry x="650" y="346" width="50" height="48" as="geometry" />
        </mxCell>
        <mxCell id="IPhadw8tjqUQaYCYA7Y1-88" value="" style="aspect=fixed;sketch=0;html=1;dashed=0;whitespace=wrap;fillColor=#2875E2;strokeColor=#ffffff;points=[[0.005,0.63,0],[0.1,0.2,0],[0.9,0.2,0],[0.5,0,0],[0.995,0.63,0],[0.72,0.99,0],[0.5,1,0],[0.28,0.99,0]];shape=mxgraph.kubernetes.icon2;kubernetesLabel=1;prIcon=pod" parent="1" vertex="1">
          <mxGeometry x="720" y="346" width="50" height="48" as="geometry" />
        </mxCell>
        <mxCell id="IPhadw8tjqUQaYCYA7Y1-89" value="" style="aspect=fixed;sketch=0;html=1;dashed=0;whitespace=wrap;fillColor=#2875E2;strokeColor=#ffffff;points=[[0.005,0.63,0],[0.1,0.2,0],[0.9,0.2,0],[0.5,0,0],[0.995,0.63,0],[0.72,0.99,0],[0.5,1,0],[0.28,0.99,0]];shape=mxgraph.kubernetes.icon2;kubernetesLabel=1;prIcon=pod" parent="1" vertex="1">
          <mxGeometry x="790" y="346" width="50" height="48" as="geometry" />
        </mxCell>
        <mxCell id="IPhadw8tjqUQaYCYA7Y1-90" value="Node Group" style="text;html=1;align=center;verticalAlign=middle;whiteSpace=wrap;rounded=0;" parent="1" vertex="1">
          <mxGeometry x="710" y="305" width="90" height="30" as="geometry" />
        </mxCell>
        <mxCell id="IPhadw8tjqUQaYCYA7Y1-96" value="" style="outlineConnect=0;gradientColor=none;html=1;whiteSpace=wrap;fontSize=12;fontStyle=0;strokeColor=#879196;fillColor=none;verticalAlign=top;align=center;fontColor=#879196;dashed=1;spacingTop=3;" parent="1" vertex="1">
          <mxGeometry x="640" y="180" width="220" height="70" as="geometry" />
        </mxCell>
        <mxCell id="IPhadw8tjqUQaYCYA7Y1-97" value="" style="aspect=fixed;sketch=0;html=1;dashed=0;whitespace=wrap;fillColor=#2875E2;strokeColor=#ffffff;points=[[0.005,0.63,0],[0.1,0.2,0],[0.9,0.2,0],[0.5,0,0],[0.995,0.63,0],[0.72,0.99,0],[0.5,1,0],[0.28,0.99,0]];shape=mxgraph.kubernetes.icon2;kubernetesLabel=1;prIcon=pod" parent="1" vertex="1">
          <mxGeometry x="650" y="191" width="50" height="48" as="geometry" />
        </mxCell>
        <mxCell id="IPhadw8tjqUQaYCYA7Y1-98" value="" style="aspect=fixed;sketch=0;html=1;dashed=0;whitespace=wrap;fillColor=#2875E2;strokeColor=#ffffff;points=[[0.005,0.63,0],[0.1,0.2,0],[0.9,0.2,0],[0.5,0,0],[0.995,0.63,0],[0.72,0.99,0],[0.5,1,0],[0.28,0.99,0]];shape=mxgraph.kubernetes.icon2;kubernetesLabel=1;prIcon=pod" parent="1" vertex="1">
          <mxGeometry x="720" y="191" width="50" height="48" as="geometry" />
        </mxCell>
        <mxCell id="IPhadw8tjqUQaYCYA7Y1-99" value="" style="aspect=fixed;sketch=0;html=1;dashed=0;whitespace=wrap;fillColor=#2875E2;strokeColor=#ffffff;points=[[0.005,0.63,0],[0.1,0.2,0],[0.9,0.2,0],[0.5,0,0],[0.995,0.63,0],[0.72,0.99,0],[0.5,1,0],[0.28,0.99,0]];shape=mxgraph.kubernetes.icon2;kubernetesLabel=1;prIcon=pod" parent="1" vertex="1">
          <mxGeometry x="790" y="191" width="50" height="48" as="geometry" />
        </mxCell>
        <mxCell id="IPhadw8tjqUQaYCYA7Y1-100" value="Node Group" style="text;html=1;align=center;verticalAlign=middle;whiteSpace=wrap;rounded=0;" parent="1" vertex="1">
          <mxGeometry x="705" y="150" width="90" height="30" as="geometry" />
        </mxCell>
        <mxCell id="IPhadw8tjqUQaYCYA7Y1-103" style="edgeStyle=orthogonalEdgeStyle;rounded=0;orthogonalLoop=1;jettySize=auto;html=1;entryX=0.011;entryY=0.353;entryDx=0;entryDy=0;entryPerimeter=0;" parent="1" source="IPhadw8tjqUQaYCYA7Y1-54" target="IPhadw8tjqUQaYCYA7Y1-86" edge="1">
          <mxGeometry relative="1" as="geometry" />
        </mxCell>
        <mxCell id="IPhadw8tjqUQaYCYA7Y1-114" value="" style="rounded=0;whiteSpace=wrap;html=1;" parent="1" vertex="1">
          <mxGeometry x="1240" y="45.5" width="160" height="714.5" as="geometry" />
        </mxCell>
        <mxCell id="He7rpBG-4wP5BNMhNdk6-1" value="" style="sketch=0;points=[[0,0,0],[0.25,0,0],[0.5,0,0],[0.75,0,0],[1,0,0],[0,1,0],[0.25,1,0],[0.5,1,0],[0.75,1,0],[1,1,0],[0,0.25,0],[0,0.5,0],[0,0.75,0],[1,0.25,0],[1,0.5,0],[1,0.75,0]];points=[[0,0,0],[0.25,0,0],[0.5,0,0],[0.75,0,0],[1,0,0],[0,1,0],[0.25,1,0],[0.5,1,0],[0.75,1,0],[1,1,0],[0,0.25,0],[0,0.5,0],[0,0.75,0],[1,0.25,0],[1,0.5,0],[1,0.75,0]];outlineConnect=0;fontColor=#232F3E;fillColor=#E7157B;strokeColor=#ffffff;dashed=0;verticalLabelPosition=bottom;verticalAlign=top;align=center;html=1;fontSize=12;fontStyle=0;aspect=fixed;shape=mxgraph.aws4.resourceIcon;resIcon=mxgraph.aws4.cloudwatch_2;" parent="1" vertex="1">
          <mxGeometry x="1295" y="170" width="55" height="55" as="geometry" />
        </mxCell>
        <mxCell id="He7rpBG-4wP5BNMhNdk6-2" value="" style="sketch=0;points=[[0,0,0],[0.25,0,0],[0.5,0,0],[0.75,0,0],[1,0,0],[0,1,0],[0.25,1,0],[0.5,1,0],[0.75,1,0],[1,1,0],[0,0.25,0],[0,0.5,0],[0,0.75,0],[1,0.25,0],[1,0.5,0],[1,0.75,0]];outlineConnect=0;fontColor=#232F3E;fillColor=#E7157B;strokeColor=#ffffff;dashed=0;verticalLabelPosition=bottom;verticalAlign=top;align=center;html=1;fontSize=12;fontStyle=0;aspect=fixed;shape=mxgraph.aws4.resourceIcon;resIcon=mxgraph.aws4.sns;" parent="1" vertex="1">
          <mxGeometry x="1295" y="272" width="55" height="55" as="geometry" />
        </mxCell>
        <mxCell id="He7rpBG-4wP5BNMhNdk6-3" value="" style="sketch=0;outlineConnect=0;fontColor=#232F3E;gradientColor=none;fillColor=#7AA116;strokeColor=none;dashed=0;verticalLabelPosition=bottom;verticalAlign=top;align=center;html=1;fontSize=12;fontStyle=0;aspect=fixed;pointerEvents=1;shape=mxgraph.aws4.bucket_with_objects;" parent="1" vertex="1">
          <mxGeometry x="1298.75" y="472" width="55" height="57.2" as="geometry" />
        </mxCell>
        <mxCell id="He7rpBG-4wP5BNMhNdk6-4" value="" style="sketch=0;points=[[0,0,0],[0.25,0,0],[0.5,0,0],[0.75,0,0],[1,0,0],[0,1,0],[0.25,1,0],[0.5,1,0],[0.75,1,0],[1,1,0],[0,0.25,0],[0,0.5,0],[0,0.75,0],[1,0.25,0],[1,0.5,0],[1,0.75,0]];outlineConnect=0;fontColor=#232F3E;fillColor=#DD344C;strokeColor=#ffffff;dashed=0;verticalLabelPosition=bottom;verticalAlign=top;align=center;html=1;fontSize=12;fontStyle=0;aspect=fixed;shape=mxgraph.aws4.resourceIcon;resIcon=mxgraph.aws4.guardduty;" parent="1" vertex="1">
          <mxGeometry x="1295" y="370" width="55" height="55" as="geometry" />
        </mxCell>
        <mxCell id="He7rpBG-4wP5BNMhNdk6-5" value="" style="sketch=0;points=[[0,0,0],[0.25,0,0],[0.5,0,0],[0.75,0,0],[1,0,0],[0,1,0],[0.25,1,0],[0.5,1,0],[0.75,1,0],[1,1,0],[0,0.25,0],[0,0.5,0],[0,0.75,0],[1,0.25,0],[1,0.5,0],[1,0.75,0]];points=[[0,0,0],[0.25,0,0],[0.5,0,0],[0.75,0,0],[1,0,0],[0,1,0],[0.25,1,0],[0.5,1,0],[0.75,1,0],[1,1,0],[0,0.25,0],[0,0.5,0],[0,0.75,0],[1,0.25,0],[1,0.5,0],[1,0.75,0]];outlineConnect=0;fontColor=#232F3E;fillColor=#E7157B;strokeColor=#ffffff;dashed=0;verticalLabelPosition=bottom;verticalAlign=top;align=center;html=1;fontSize=12;fontStyle=0;aspect=fixed;shape=mxgraph.aws4.resourceIcon;resIcon=mxgraph.aws4.cloudtrail;" parent="1" vertex="1">
          <mxGeometry x="1290" y="70" width="55" height="55" as="geometry" />
        </mxCell>
        <mxCell id="1MIM3KkcUKfmm6xURoJ1-71" value="EKS" style="text;html=1;align=center;verticalAlign=middle;whiteSpace=wrap;rounded=0;" vertex="1" parent="1">
          <mxGeometry x="645" y="150" width="60" height="30" as="geometry" />
        </mxCell>
        <mxCell id="1MIM3KkcUKfmm6xURoJ1-77" value="CloudTrail" style="text;html=1;align=center;verticalAlign=middle;whiteSpace=wrap;rounded=0;" vertex="1" parent="1">
          <mxGeometry x="1285" y="120" width="60" height="30" as="geometry" />
        </mxCell>
        <mxCell id="1MIM3KkcUKfmm6xURoJ1-78" value="&lt;div&gt;Cloudwatch&lt;/div&gt;&lt;div&gt;&lt;br&gt;&lt;/div&gt;" style="text;html=1;align=center;verticalAlign=middle;whiteSpace=wrap;rounded=0;" vertex="1" parent="1">
          <mxGeometry x="1290" y="230" width="60" height="30" as="geometry" />
        </mxCell>
        <mxCell id="1MIM3KkcUKfmm6xURoJ1-79" value="&lt;div align=&quot;left&quot;&gt;SNS&lt;br&gt;&lt;/div&gt;" style="text;html=1;align=center;verticalAlign=middle;whiteSpace=wrap;rounded=0;" vertex="1" parent="1">
          <mxGeometry x="1290" y="322" width="60" height="30" as="geometry" />
        </mxCell>
        <mxCell id="1MIM3KkcUKfmm6xURoJ1-80" value="&lt;div&gt;GuardDuty&lt;/div&gt;&lt;div&gt;&lt;br&gt;&lt;/div&gt;" style="text;html=1;align=center;verticalAlign=middle;whiteSpace=wrap;rounded=0;" vertex="1" parent="1">
          <mxGeometry x="1292.5" y="430" width="60" height="30" as="geometry" />
        </mxCell>
        <mxCell id="1MIM3KkcUKfmm6xURoJ1-81" value="S3 for Logs" style="text;html=1;align=center;verticalAlign=middle;whiteSpace=wrap;rounded=0;" vertex="1" parent="1">
          <mxGeometry x="1291.25" y="530" width="60" height="30" as="geometry" />
        </mxCell>
        <mxCell id="1MIM3KkcUKfmm6xURoJ1-82" value="\" style="sketch=0;points=[[0,0,0],[0.25,0,0],[0.5,0,0],[0.75,0,0],[1,0,0],[0,1,0],[0.25,1,0],[0.5,1,0],[0.75,1,0],[1,1,0],[0,0.25,0],[0,0.5,0],[0,0.75,0],[1,0.25,0],[1,0.5,0],[1,0.75,0]];outlineConnect=0;fontColor=#232F3E;fillColor=#DD344C;strokeColor=#ffffff;dashed=0;verticalLabelPosition=bottom;verticalAlign=top;align=center;html=1;fontSize=12;fontStyle=0;aspect=fixed;shape=mxgraph.aws4.resourceIcon;resIcon=mxgraph.aws4.inspector;" vertex="1" parent="1">
          <mxGeometry x="1295" y="570" width="55" height="55" as="geometry" />
        </mxCell>
        <mxCell id="1MIM3KkcUKfmm6xURoJ1-83" value="&lt;div&gt;Inspector&lt;/div&gt;&lt;div&gt;&lt;br&gt;&lt;/div&gt;" style="text;html=1;align=center;verticalAlign=middle;whiteSpace=wrap;rounded=0;" vertex="1" parent="1">
          <mxGeometry x="1292.5" y="625" width="60" height="30" as="geometry" />
        </mxCell>
        <mxCell id="1MIM3KkcUKfmm6xURoJ1-86" value="" style="rounded=0;whiteSpace=wrap;html=1;" vertex="1" parent="1">
          <mxGeometry x="-250" y="260" width="210" height="200" as="geometry" />
        </mxCell>
        <mxCell id="1MIM3KkcUKfmm6xURoJ1-87" value="&lt;b&gt;&lt;font style=&quot;font-size: 18px;&quot;&gt;Actors&lt;/font&gt;&lt;/b&gt;" style="rounded=0;whiteSpace=wrap;html=1;" vertex="1" parent="1">
          <mxGeometry x="-250" y="460" width="210" height="50" as="geometry" />
        </mxCell>
        <mxCell id="1MIM3KkcUKfmm6xURoJ1-88" value="" style="sketch=0;outlineConnect=0;fontColor=#232F3E;gradientColor=none;fillColor=#232F3D;strokeColor=none;dashed=0;verticalLabelPosition=bottom;verticalAlign=top;align=center;html=1;fontSize=12;fontStyle=0;aspect=fixed;pointerEvents=1;shape=mxgraph.aws4.users;" vertex="1" parent="1">
          <mxGeometry x="-240" y="340" width="60" height="60" as="geometry" />
        </mxCell>
        <mxCell id="1MIM3KkcUKfmm6xURoJ1-89" value="" style="sketch=0;aspect=fixed;pointerEvents=1;shadow=0;dashed=0;html=1;strokeColor=none;labelPosition=center;verticalLabelPosition=bottom;verticalAlign=top;align=center;fillColor=#00188D;shape=mxgraph.azure.mobile" vertex="1" parent="1">
          <mxGeometry x="-117.5" y="380" width="35" height="50" as="geometry" />
        </mxCell>
        <mxCell id="1MIM3KkcUKfmm6xURoJ1-90" value="" style="shape=image;html=1;verticalAlign=top;verticalLabelPosition=bottom;labelBackgroundColor=#ffffff;imageAspect=0;aspect=fixed;image=https://cdn2.iconfinder.com/data/icons/whcompare-isometric-web-hosting-servers/50/root-access-128.png" vertex="1" parent="1">
          <mxGeometry x="-130" y="300" width="60" height="60" as="geometry" />
        </mxCell>
        <mxCell id="1MIM3KkcUKfmm6xURoJ1-91" value="User" style="text;html=1;align=center;verticalAlign=middle;whiteSpace=wrap;rounded=0;" vertex="1" parent="1">
          <mxGeometry x="-240" y="395.5" width="60" height="30" as="geometry" />
        </mxCell>
        <mxCell id="1MIM3KkcUKfmm6xURoJ1-92" style="edgeStyle=orthogonalEdgeStyle;rounded=0;orthogonalLoop=1;jettySize=auto;html=1;entryX=0.182;entryY=0.345;entryDx=0;entryDy=0;entryPerimeter=0;" edge="1" parent="1" source="1MIM3KkcUKfmm6xURoJ1-90" target="IPhadw8tjqUQaYCYA7Y1-20">
          <mxGeometry relative="1" as="geometry" />
        </mxCell>
        <mxCell id="1MIM3KkcUKfmm6xURoJ1-93" style="edgeStyle=orthogonalEdgeStyle;rounded=0;orthogonalLoop=1;jettySize=auto;html=1;entryX=0.133;entryY=0.067;entryDx=0;entryDy=0;entryPerimeter=0;" edge="1" parent="1" source="1MIM3KkcUKfmm6xURoJ1-89" target="IPhadw8tjqUQaYCYA7Y1-25">
          <mxGeometry relative="1" as="geometry">
            <Array as="points">
              <mxPoint x="24" y="405" />
              <mxPoint x="24" y="380" />
              <mxPoint x="138" y="380" />
            </Array>
          </mxGeometry>
        </mxCell>
        <mxCell id="1MIM3KkcUKfmm6xURoJ1-102" value="" style="outlineConnect=0;dashed=0;verticalLabelPosition=bottom;verticalAlign=top;align=center;html=1;shape=mxgraph.aws3.iam;fillColor=#759C3E;gradientColor=none;" vertex="1" parent="1">
          <mxGeometry x="1303" y="655" width="42" height="70" as="geometry" />
        </mxCell>
        <mxCell id="1MIM3KkcUKfmm6xURoJ1-103" value="IAM " style="text;html=1;align=center;verticalAlign=middle;whiteSpace=wrap;rounded=0;" vertex="1" parent="1">
          <mxGeometry x="1296.25" y="725" width="60" height="30" as="geometry" />
        </mxCell>
      </root>
    </mxGraphModel>
  </diagram>
</mxfile>
